<?xml version="1.0" encoding="utf-8"?>
<!-- Generator: Adobe Illustrator 23.0.1, SVG Export Plug-In . SVG Version: 6.00 Build 0)  -->
<svg version="1.1" xmlns="http://www.w3.org/2000/svg" xmlns:xlink="http://www.w3.org/1999/xlink" x="0px" y="0px"
	 viewBox="0 0 500 500" style="enable-background:new 0 0 500 500;" xml:space="preserve">
<style type="text/css">
	.st0{fill:#B9E162;}
	.st1{fill:#ACD25B;}
	.st2{fill:#CAEF6B;}
	.st3{fill:#A2C556;}
</style>
<g id="Background">
	<g>
		<path class="st0" d="M500,170.8v216.23c-62.07,31.15-150.63,50.63-248.94,50.63c-99.38,0-188.79-19.91-250.96-51.65V173.09
			c-0.44-0.19-0.88-0.39-1.31-0.6c0.43-0.23,0.87-0.45,1.31-0.67c62.16-31.74,151.58-51.65,250.96-51.65
			c97.53,0,185.46,19.17,247.45,49.89C499.01,170.3,499.51,170.55,500,170.8z"/>
		<path class="st1" d="M500,372.7v127.19H0.1V370.84c1.12-0.56,2.26-1.12,3.41-1.68c0.12-0.06,0.24-0.12,0.37-0.18
			c0.89-0.43,1.77-0.85,2.67-1.27c0.02-0.01,0.03-0.03,0.05-0.03c3.13-1.48,6.32-2.93,9.57-4.34c3.41-1.49,6.89-2.95,10.42-4.37
			c59.51-23.91,136.95-38.36,221.62-38.36C348.03,320.62,437.8,340.71,500,372.7z"/>
		<path class="st2" d="M500,0v169.35c-0.49,0.24-0.99,0.48-1.49,0.71c-64.93,30.87-154.09,49.92-252.47,49.92
			c-95.12,0-181.62-17.81-245.93-46.89c-0.44-0.19-0.88-0.39-1.31-0.6c0.43-0.23,0.87-0.45,1.31-0.67V0H500z"/>
		<path class="st1" d="M26.59,358.99c-0.51,2.64-0.86,4.3-0.86,4.3s-7.71,29.28-23.95,11.92c0,0-0.65-1.4-1.67-3.62v-10.67
			c0.25,0.52,0.5,1.04,0.74,1.55c-0.26-0.73-0.51-1.47-0.74-2.22v-12.76c0.39-0.17,0.86-0.23,1.41-0.2
			c2.34,0.15,4.23,13.58,5.04,20.43c0.09,0.77,0.17,1.46,0.23,2.04c-0.05-0.58-0.12-1.28-0.18-2.07c-0.53-6.53-1.11-18.88,2.1-18.99
			c6.66-0.24,7.47,14.65,7.47,14.65s7.27-38.54,12.48-38.54C32.77,324.81,28.53,348.95,26.59,358.99z"/>
		<path class="st1" d="M40.73,358.9c0,0-7.34-14.59-4.06-16.63c3.28-2.04,5.78,11.61,5.78,11.61s-3.59-26.98,0-27.92
			c3.59-0.94,5.94,27.61,5.94,27.61s2.81-15.06,5.16-15.06c2.34,0,2.03,12.55,2.03,12.55S47.76,365.17,40.73,358.9z"/>
		<path class="st0" d="M125.38,220.29c0,0-8.19-23.95-4.91-25.99c3.28-2.04,6.62,20.97,6.62,20.97s-0.72-35.61,2.87-36.55
			c3.59-0.94,3.07,36.24,3.07,36.24s2.81-15.06,5.16-15.06c2.34,0,2.03,12.55,2.03,12.55S132.41,226.56,125.38,220.29z"/>
		<path class="st1" d="M70.1,349.49c0,0-15.47-25.57-11.56-27.61c3.91-2.04,16.72,26.35,16.72,26.35s-2.5-18.98,1.56-19.61
			c4.06-0.63,5.16,19.92,5.16,19.92s0.47-37.96,7.34-37.18c6.88,0.79-3.38,34.56-3.38,34.56S83.85,366.74,70.1,349.49z"/>
		<path class="st0" d="M6.43,177.1c0,0,8.09-31.33,12.33-30.14c4.24,1.19-5.71,30.71-5.71,30.71s11.08-15.58,14.48-13.25
			c3.39,2.33-9.78,18.09-9.78,18.09s26.16-27.41,30.65-22.12c4.49,5.29-23.05,24.75-23.05,24.75S4.74,199.13,6.43,177.1z"/>
		<path class="st1" d="M375.23,333.64c0,0,10.88-32.34,15.1-31.07c4.22,1.27-6.27,30.6-6.27,30.6s11.36-15.37,14.72-12.98
			c3.35,2.39-10.11,17.91-10.11,17.91s25.86-26.8,29.22-23.67c5.07,4.72-21.67,26.43-21.67,26.43S373.14,355.64,375.23,333.64z"/>
		<path class="st0" d="M323.21,217.45c0,0,1.36-29.8,5.58-28.54c4.22,1.27-2.29,25.65-2.29,25.65s6.27-26.1,9.62-23.71
			c3.35,2.39-5.01,28.63-5.01,28.63s14.85-40.07,16.37-38.57c1.58,1.57-4.38,37.75-4.38,37.75S321.12,239.45,323.21,217.45z"/>
		<path class="st1" d="M259.3,321.06c0,0-1.87-25.98,2.45-26.79c4.33-0.81,2.84,27.09,2.84,27.09s3.09-18.89,7.16-18.31
			c4.07,0.58-0.82,20.57-0.82,20.57s14.57-34.68,17.77-33.44c6.45,2.51-9.79,32.42-9.79,32.42S267.47,341.58,259.3,321.06z"/>
		<path class="st1" d="M108.54,342.59c0,0-9.32-17.52-5.42-19.56c3.91-2.04,6.56,11.19,6.56,11.19s-2.71-23.28,1.35-23.9
			c4.06-0.63,5,23.46,5,23.46s4.38-33.02,7.08-32.5c6.8,1.3-1.98,31.69-1.98,31.69S122.28,359.84,108.54,342.59z"/>
		<path class="st0" d="M96.86,214.3c0,0-5.43-22.68-1.53-24.72c3.91-2.04,2.67,16.35,2.67,16.35s1.51-11.87,5.57-12.5
			c4.06-0.63,0.78,12.05,0.78,12.05s12.77-29.83,17.6-24.86c2.51,2.58-14.26,27.41-14.26,27.41S110.61,231.56,96.86,214.3z"/>
		<path class="st0" d="M36.76,198.94c0,0-4.55-17.69-0.64-19.72c3.91-2.04,2.81,9.72,2.81,9.72s0.49-10.24,4.55-10.86
			c4.06-0.63,0.78,12.05,0.78,12.05s10.73-25.65,17.6-24.86c6.87,0.78-15.67,27.6-15.67,27.6S50.51,216.19,36.76,198.94z"/>
		<path class="st1" d="M301.53,335.82c0,0,22.08-19.71,20.11-23.67c-1.97-3.96-15.52,11.76-15.52,11.76s7.35-15.76,4.43-18.67
			c-2.92-2.9-9.93,19.02-9.93,19.02s6.33-27.08,0.31-30.5c-6.02-3.42-4.75,28.27-4.75,28.27S280.31,341.67,301.53,335.82z"/>
		<path class="st0" d="M275.28,224.77c0,0,3.58-26.55,0.38-29.59c-1.88-1.8-6.55,21.81-6.55,21.81s5.02-30.93,1.16-32.32
			c-3.87-1.4-4.54,35.92-4.54,35.92s-5.22-28.36-12.1-29.07c-3.02-0.31,8.75,32.94,8.75,32.94S258.49,239.07,275.28,224.77z"/>
		<path class="st1" d="M108.01,338.82c-0.31-0.52-7.71-13.18-9.79-10.77c-2.08,2.41,4.9,13.49,4.9,13.49l4.89-2.3"/>
		<path class="st1" d="M133.22,333.77c0,0-0.98-15.87,2.06-15.03c3.04,0.84,0,13.18,0,13.18s4.71-30.65,7.62-30.65
			c6.63,0-1.25,29.92-1.25,29.92s7.29-19.56,8.54-20.18c4.1-2.04-3.54,19.59-3.54,19.59S135.02,347.04,133.22,333.77z"/>
		<path class="st0" d="M140.8,214.74c0,0-0.7-28.25,2.34-27.42c3.04,0.84,3.28,23.16,3.28,23.16s7.11-30.42,9.92-29
			c5.92,2.98-3.55,28.27-3.55,28.27s8.23-14.78,12.4-12.86c1.29,0.59-10.8,21.22-10.8,21.22S142.59,228.01,140.8,214.74z"/>
		<path class="st1" d="M322.17,329.36c0,0,2.54-23.5,5.62-22.85c1.98,0.42,0.93,22.23,0.93,22.23s2.23-30.74,8.76-29.6
			c2.31,0.4-2.38,28.87-2.38,28.87s3.84-21.65,8.42-21.58c1.72,0.03-3.02,21.33-3.02,21.33S323.96,342.62,322.17,329.36z"/>
		<path class="st0" d="M292.28,218.99c0,0-0.98-15.87,2.06-15.03c3.04,0.84,0,13.18,0,13.18s5.74-33.22,7.45-32.36
			c5.92,2.99,2.97,37.44,2.97,37.44s1.11-24.7,5.48-23.34c4.38,1.36,1.03,28.78,1.03,28.78S294.08,232.26,292.28,218.99z"/>
		<path class="st1" d="M163.74,327.63c0,0-5.94-7.01-4.69-7.74c1.25-0.73,5.72,5.55,5.72,5.55s-5.82-22.6-0.51-22.91
			c5.31-0.31,4.69,22.43,4.62,22.44c-0.07,0.01,3.08-14.28,6-14.07c2.92,0.21-1.56,15.79-1.56,15.79s6.15-12.45,11.35-11.61
			c5.21,0.84-5.73,10.88-5.73,10.88S168.01,339.34,163.74,327.63z"/>
		<path class="st0" d="M171.34,216.88c0,0-6.56-13.1-5.31-13.83c1.25-0.73,6.87,8.34,6.87,8.34s-6.35-19.3-1.04-19.61
			c5.31-0.31,4.69,22.43,4.62,22.44c-0.07,0.01,3.08-14.28,6-14.07c2.92,0.21-1.56,15.79-1.56,15.79s6.35-13.29,11.35-11.61
			c2.03,0.68-5.73,10.88-5.73,10.88S175.61,228.6,171.34,216.88z"/>
		<path class="st1" d="M355.81,330.77c0,0-5.94-7.01-4.69-7.74c1.25-0.73,5.72,5.55,5.72,5.55s-5.82-22.6-0.51-22.91
			c5.31-0.31,4.69,22.43,4.62,22.44c-0.07,0.01,3.08-14.28,6-14.07c2.92,0.21-1.56,15.79-1.56,15.79s6.15-12.45,11.35-11.61
			c5.21,0.84-5.73,10.88-5.73,10.88S360.08,342.48,355.81,330.77z"/>
		<path class="st1" d="M194.36,325.75c0,0-6.46-13.49-3.33-13.49c3.12,0,7.5,12.86,7.5,12.86s-2.81-16.42-1.15-17.57
			c1.67-1.15,6.04,15.06,6.04,15.58c0,0.52-1.25-15.37,0.83-16c2.08-0.63,4.27,16.94,4.06,17.46c-0.21,0.52,0.62-22.9,2.81-23.32
			c2.19-0.42,4.27,22.16,3.96,22.53c-0.31,0.37-17.19,10.62-20.83,2.57"/>
		<path class="st0" d="M437.09,193.7c0,0-6.46-18.88-3.33-18.88s7.5,18.01,7.5,18.01s-2.81-22.98-1.15-24.6
			c1.67-1.61,6.04,21.08,6.04,21.81c0,0.73,1.46-11.42,3.54-12.3c2.08-0.88,1.56,13.61,1.36,14.35c-0.21,0.73,3.33-12.74,5.52-13.32
			c2.19-0.59,1.56,11.69,1.25,12.22c-0.31,0.52-17.19,14.87-20.83,3.6"/>
		<path class="st0" d="M500,159v18.6c-5.07,2.78-11.16,4.4-13.18-1.85l0.11-0.88c0,0-6.46-18.89-3.33-18.89
			c3.12,0,7.5,18.01,7.5,18.01s-2.81-22.98-1.15-24.6c1.67-1.61,6.04,21.08,6.04,21.82c0,0.73,1.46-11.42,3.54-12.3
			C499.71,158.84,499.86,158.88,500,159z"/>
		<path class="st0" d="M200.3,220.63c0,0-7.31-22.93-4.19-22.93c3.12,0,8.35,22.31,8.35,22.31s-2.81-16.42-1.15-17.57
			c1.67-1.15,6.04,15.06,6.04,15.58c0,0.52,1.46-8.16,3.54-8.78c2.08-0.63,1.56,9.72,1.35,10.25c-0.21,0.52,5.41-21.73,7.6-22.15
			c2.19-0.42-0.68,25.04-0.99,25.41c-0.31,0.37-17.03,6.57-20.67-1.48"/>
		<path class="st1" d="M218.35,324.08c0,0-5.84-42.08,0-42.37c7.91-0.38,5.42,45.54,5.42,45.54s6.55-26.51,11.28-27.19
			c4.74-0.68-4.51,26.06-4.51,26.06s12.19-19.49,17.38-18.8c5.19,0.68-7.22,22.43-7.22,22.43s12.21-23.26,14.92-23.03
			c2.71,0.22,0.43,17.75,0.43,17.75S213.6,358.03,218.35,324.08z"/>
		<path class="st0" d="M461.81,182.35c0,0-5.94-29.02,0-29.33c5.94-0.31,3.75,31.53,3.75,31.53s4.53-18.35,7.81-18.82
			c3.28-0.47-3.12,18.04-3.12,18.04s8.44-13.49,12.03-13.02c3.59,0.47-5,15.53-5,15.53s10.47-13.65,12.34-13.49
			c1.87,0.16-7.81,15.06-7.81,15.06S458.52,205.85,461.81,182.35z"/>
		<path class="st0" d="M223.53,221.69c0,0-0.22-29.9,5.73-29.9c3.33,0,2.81,27.07,2.81,27.07s4.53-18.35,7.81-18.82
			c3.28-0.47-3.12,18.04-3.12,18.04s8.44-13.49,12.03-13.02c3.59,0.47-5,15.53-5,15.53s10.47-13.65,12.34-13.49
			c1.88,0.16-7.81,15.06-7.81,15.06S220.24,245.19,223.53,221.69z"/>
		<path class="st0" d="M63.21,198.37c0,0,0-29.33,5.94-29.65c5.94-0.31-2.19,31.84-2.19,31.84s4.53-18.35,7.81-18.82
			c3.28-0.47-3.12,18.04-3.12,18.04s8.44-13.49,12.03-13.02c3.59,0.47-5,15.53-5,15.53S92.44,176,96.04,179.92
			c1.27,1.39-12.82,23.94-12.82,23.94S59.92,221.87,63.21,198.37z"/>
		<path class="st1" d="M406.01,340.49c0,0,19.97-11.47,16.01-14.93c-3.96-3.45-20.39,13.96-20.39,13.96L406.01,340.49z"/>
		<path class="st1" d="M418.93,345.83c-0.02-0.31,4.45-10.79,6.7-10.15c2.25,0.63,0,10.15,0,10.15s9.02-19.87,15.79-19.45
			c6.77,0.42-9.89,23.42-9.89,23.42s14.27-14.01,16.35-12.55c2.08,1.46-8.12,12.97-8.12,12.97s10.1-6.27,12.5-5.02
			c2.4,1.26-5.31,9.31-5.31,9.31S420.04,368.95,418.93,345.83z"/>
		<path class="st0" d="M365.74,211.77c-0.02-0.31-2.76-26.32-0.51-25.69c2.25,0.63,6.02,19.46,6.02,19.46s0.33-30.9,7.1-30.48
			c6.77,0.42-1.21,34.45-1.21,34.45s6.86-25.25,8.94-23.79c2.08,1.46-0.71,24.21-0.71,24.21s5.89-26.72,8.29-25.46
			c2.4,1.25-1.1,29.75-1.1,29.75S366.86,234.89,365.74,211.77z"/>
		<path class="st1" d="M463.04,363.92c0,0-4.37-28.92,0-28.34c4.37,0.57,4.69,26.14,4.69,26.14s5-23.53,8.75-22.9
			c3.75,0.63,0.31,23.37,0,24.31s9.37-28.71,15.62-30.12c6.25-1.41-7.5,43.14-7.5,43.14S460.07,377.56,463.04,363.92z"/>
		<path class="st0" d="M400.18,204.66c0,0-4.37-28.92,0-28.34c4.38,0.58,4.69,26.14,4.69,26.14s5-23.53,8.75-22.9
			c3.75,0.63,0.31,23.37,0,24.31c-0.31,0.94,9.37-28.71,15.62-30.12c6.25-1.41-7.5,43.14-7.5,43.14S397.21,218.31,400.18,204.66z"/>
		<path class="st1" d="M283.68,323.45c0-0.39,3.67-15.92,5.7-14.67c2.03,1.26-1.33,15.69-1.33,15.69s4.06-10.21,5.23-9.26
			c1.17,0.95-1.56,9.26-1.56,9.26s-8.05-0.55-8.05-0.79"/>
		<path class="st1" d="M315.57,326.59c0,0,4.92-11.84,6.25-10c1.33,1.84-1.56,11.17-1.56,11.17L315.57,326.59z"/>
		<path class="st1" d="M186.55,326.43c0,0,0.52-8.73,1.93-8.37c1.41,0.37,1.41,7.48,1.41,7.48l-3.33,1.2"/>
		<path class="st1" d="M152.28,330.6c0,0-3.44-11.02,0-11.86c3.44-0.84,2.81,10.71,2.81,10.71s0.62-7.26,1.98-6.63
			c1.35,0.63,1.35,6.63,1.35,6.63l-5.62,1.14"/>
		<path class="st1" d="M127.39,334.64c0,0-1.9-15.81,0-17.16c6.35-4.49,3.23,17.16,3.23,17.16H127.39z"/>
		<path class="st1" d="M94.86,341.54c0,0-4.37-14.72-2.34-14.79c2.03-0.08,5.32,13.41,5.32,13.41l-2.93,1.72"/>
		<path class="st1" d="M61.25,350.22c0,0-6.06-14.53-3.34-15.58c2.72-1.05,6.67,14.22,6.67,14.22l-3.69,1.88"/>
		<path class="st1" d="M29.89,361.83c0,0-0.42-14.43,2.19-14.43c2.6,0,1.67,11.71,1.67,11.71l-4.27,2.72"/>
		<path class="st1" d="M500,354.09v25.09c-0.46,1.86-0.76,3.04-0.76,3.04l-7.81-8.58c0,0,3.95-18.24,6.87-19.05
			C498.88,354.42,499.45,354.24,500,354.09z"/>
		<path class="st1" d="M456.11,360.78c-0.1-0.52-2.71-17.37,1.1-17.36c2,0,2.65,14.54,2.65,14.54L456.11,360.78z"/>
		<path class="st1" d="M342.35,329.77c0,0,1.48-15.19,3.36-15.35c1.88-0.16,2.03,16.47,2.03,16.47s0.86-6.67,2.03-5.96
			c1.17,0.71,1.87,4.84,1.87,4.84S342.35,345.82,342.35,329.77z"/>
		<path class="st1" d="M411.17,342.67c0,0,3.91-7.53,6.09-7.61c2.19-0.08,0,9.02,0,9.02L411.17,342.67z"/>
		<path class="st1" d="M429.53,329.49"/>
		<path class="st3" d="M69.89,432.31c0,0-19.96-33.88-12.69-35.56c7.27-1.67,10.91,20.89,10.91,20.89s-0.08-36.99,6.68-35.43
			C81.56,383.79,69.89,432.31,69.89,432.31z"/>
		<path class="st3" d="M45.7,452.6c0,0-5.18-26.14-13.1-24.05C23.66,430.91,45.7,452.6,45.7,452.6z"/>
		<path class="st3" d="M127.78,471.63c0,0-5.18-26.15-13.1-24.05C105.73,449.94,127.78,471.63,127.78,471.63z"/>
		<path class="st3" d="M127.5,470.3c0,0,7.18-41.55-0.73-39.46C117.82,433.21,127.5,470.3,127.5,470.3z"/>
		<path class="st3" d="M127.78,397.19c0,0-1.02-38.78-8.93-36.69C109.9,362.87,127.78,397.19,127.78,397.19z"/>
		<path class="st3" d="M127.5,395.87c0,0,16.35-29.23,8.43-27.14C126.98,371.09,127.5,395.87,127.5,395.87z"/>
		<path class="st1" d="M43.13,305.67c0,0-1.02-38.78-8.93-36.69C25.26,271.35,43.13,305.67,43.13,305.67z"/>
		<path class="st1" d="M42.85,304.35c0,0,16.35-29.23,8.43-27.14C42.34,279.57,42.85,304.35,42.85,304.35z"/>
		<path class="st0" d="M63.3,136.25c0,0-0.74-28.19-6.49-26.67C50.31,111.3,63.3,136.25,63.3,136.25z"/>
		<path class="st0" d="M63.1,135.29c0,0,11.89-21.25,6.13-19.73C62.73,117.28,63.1,135.29,63.1,135.29z"/>
		<path class="st3" d="M250.5,372.1c0,0,1.02-38.78,8.93-36.69C268.38,337.77,250.5,372.1,250.5,372.1z"/>
		<path class="st3" d="M250.78,370.77c0,0-16.35-29.23-8.43-27.13C251.29,346,250.78,370.77,250.78,370.77z"/>
		<path class="st3" d="M212.96,399c0,0,16.35-29.23,8.43-27.14C212.45,374.23,212.96,399,212.96,399z"/>
		<path class="st1" d="M59.28,254.64c0,0,16.35-29.23,8.43-27.14C58.77,229.87,59.28,254.64,59.28,254.64z"/>
		<path class="st3" d="M170.91,480.14c0,0-3.52-29.85-11.44-27.75C150.53,454.75,170.91,480.14,170.91,480.14z"/>
		<path class="st3" d="M170.63,478.81c0,0,16.35-29.23,8.43-27.14C170.11,454.04,170.63,478.81,170.63,478.81z"/>
		<path class="st3" d="M97.83,448.62c0,0-7.34-42.49,4.33-37.65C111.97,415.05,97.83,448.62,97.83,448.62z"/>
		<path class="st1" d="M78.43,292.62c0,0-3.74-21.68,2.21-19.21C85.64,275.49,78.43,292.62,78.43,292.62z"/>
		<path class="st3" d="M186.5,423.94c0,0-10.09-34.62,1.72-30.12C193.13,395.7,186.5,423.94,186.5,423.94z"/>
		<path class="st3" d="M248.46,427.71c0,0-10.09-34.62,1.71-30.12C255.08,399.47,248.46,427.71,248.46,427.71z"/>
		<path class="st3" d="M233.1,473.93c0,0,7.08-29.28,15.11-25.31C252.92,450.96,233.1,473.93,233.1,473.93z"/>
		<path class="st3" d="M157.62,423.94c0,0-4.4-32.63,4.14-26.75C164.65,399.18,157.62,423.94,157.62,423.94z"/>
		<path class="st3" d="M284.81,401.4c0,0-4.4-32.63,4.14-26.75C291.83,376.63,284.81,401.4,284.81,401.4z"/>
		<path class="st3" d="M144.4,416.21c0,0-9.93-24.89-1.38-19.01C145.9,399.18,144.4,416.21,144.4,416.21z"/>
		<path class="st1" d="M53,260.93c0,0-9.92-24.89-1.38-19.01C54.5,243.9,53,260.93,53,260.93z"/>
		<path class="st3" d="M209.34,383.89c0,0-9.93-24.89-1.39-19.01C210.84,366.86,209.34,383.89,209.34,383.89z"/>
		<path class="st3" d="M224.11,347.13c0,0-6.6-12.94-1.38-12.43C224.93,334.92,224.11,347.13,224.11,347.13z"/>
		<path class="st3" d="M178.95,363.98c0,0-3.21-12.94,2.01-12.42C183.16,351.77,178.95,363.98,178.95,363.98z"/>
		<path class="st3" d="M91.98,368.62c0,0-8.12-13.51-2.9-13C91.29,355.84,91.98,368.62,91.98,368.62z"/>
		<path class="st1" d="M24.12,240.18c0,0-8.12-13.51-2.9-13C23.42,227.4,24.12,240.18,24.12,240.18z"/>
		<path class="st3" d="M225.79,345.02c0,0-1.15-17.25,4.1-14.03C232.59,332.64,225.79,345.02,225.79,345.02z"/>
		<path class="st3" d="M274.75,432.36c0,0-9.92-24.89-1.38-19.01C276.25,415.33,274.75,432.36,274.75,432.36z"/>
		<path class="st3" d="M195.38,458.58c0,0-9.92-24.89-1.38-19.01C196.88,441.55,195.38,458.58,195.38,458.58z"/>
		<path class="st3" d="M226.65,483.59c0,0-12.46-18.37-3.92-12.49C225.61,473.08,226.65,483.59,226.65,483.59z"/>
		<path class="st3" d="M231.78,474.71c0.07,0.26-12.82-40.37-3.26-36.31C236.34,441.72,231.78,474.71,231.78,474.71z"/>
		<path class="st3" d="M172.85,358.32c0,0-9.93-24.89-1.38-19.01C174.35,341.29,172.85,358.32,172.85,358.32z"/>
		<path class="st3" d="M74.41,477.39c0,0-9.92-24.89-1.38-19.01C75.91,460.36,74.41,477.39,74.41,477.39z"/>
		<path class="st3" d="M32.7,407.15c0,0-9.92-24.89-1.38-19.01C34.2,390.12,32.7,407.15,32.7,407.15z"/>
		<path class="st3" d="M19.57,480.26c0,0-9.92-24.89-1.38-19.01C21.07,463.23,19.57,480.26,19.57,480.26z"/>
		<path class="st3" d="M23.44,487.92c0,0-3.12-21.98,5.43-16.11C31.75,473.8,23.44,487.92,23.44,487.92z"/>
		<path class="st3" d="M426.42,426.02c0,0,19.95-33.88,12.68-35.56c-7.27-1.67-10.91,20.89-10.91,20.89s0.08-36.99-6.68-35.43
			C414.76,377.49,426.42,426.02,426.42,426.02z"/>
		<path class="st3" d="M450.61,446.31c0,0,5.18-26.15,13.1-24.05C472.66,424.62,450.61,446.31,450.61,446.31z"/>
		<path class="st1" d="M438.78,270.33c0,0-9.83-24.76-2.06-27.33C445.51,240.08,438.78,270.33,438.78,270.33z"/>
		<path class="st3" d="M368.54,465.34c0,0,5.18-26.14,13.1-24.05C390.58,443.65,368.54,465.34,368.54,465.34z"/>
		<path class="st1" d="M478.9,259.43c0,0-2.89-26.5,5.29-26.89C493.42,232.09,478.9,259.43,478.9,259.43z"/>
		<path class="st3" d="M368.82,464.01c0,0-7.18-41.55,0.73-39.46C378.5,426.92,368.82,464.01,368.82,464.01z"/>
		<path class="st3" d="M368.54,390.9c0,0,1.02-38.78,8.93-36.69C386.42,356.58,368.54,390.9,368.54,390.9z"/>
		<path class="st3" d="M368.82,389.57c0,0-16.35-29.23-8.43-27.14C369.33,364.8,368.82,389.57,368.82,389.57z"/>
		<path class="st1" d="M462.66,310.37c0,0,1.02-38.78,8.93-36.68C480.54,276.04,462.66,310.37,462.66,310.37z"/>
		<path class="st1" d="M462.95,309.04c0,0-16.35-29.23-8.43-27.14C463.46,284.27,462.95,309.04,462.95,309.04z"/>
		<path class="st3" d="M325.4,473.85c0,0,3.52-29.85,11.44-27.75C345.79,448.46,325.4,473.85,325.4,473.85z"/>
		<path class="st3" d="M325.69,472.52c0,0-16.35-29.23-8.43-27.14C326.2,447.75,325.69,472.52,325.69,472.52z"/>
		<path class="st3" d="M398.48,442.33c0,0,7.34-42.5-4.33-37.65C384.34,408.76,398.48,442.33,398.48,442.33z"/>
		<path class="st3" d="M338.69,417.65c0,0,4.41-32.62-4.14-26.75C331.67,392.88,338.69,417.65,338.69,417.65z"/>
		<path class="st3" d="M351.92,409.91c0,0,9.92-24.89,1.38-19.01C350.42,392.88,351.92,409.91,351.92,409.91z"/>
		<path class="st3" d="M421.91,471.1c0,0,9.93-24.89,1.38-19.01C420.41,454.07,421.91,471.1,421.91,471.1z"/>
		<path class="st3" d="M441.95,482.66c0,0,10.5-20.69,0.47-18.14C435.85,466.19,441.95,482.66,441.95,482.66z"/>
		<path class="st3" d="M463.62,400.86c0,0,9.92-24.89,1.38-19.01C462.12,383.83,463.62,400.86,463.62,400.86z"/>
		<path class="st1" d="M471.54,247.83c0,0,2.73-26.67-3.87-18.66C465.44,231.87,471.54,247.83,471.54,247.83z"/>
		<path class="st3" d="M399.29,367.96c0,0,8.28-14.47,0.62-13.36C396.45,355.11,399.29,367.96,399.29,367.96z"/>
		<path class="st1" d="M412.55,233.52c0,0,4.11-16.17-2.97-13.03C406.38,221.91,412.55,233.52,412.55,233.52z"/>
		<path class="st1" d="M451.34,220.07c0,0,8.28-14.47,0.62-13.36C448.49,207.21,451.34,220.07,451.34,220.07z"/>
		<path class="st1" d="M93.23,231.86c0,0,14.49-8.18,7.33-11.16C97.33,219.35,93.23,231.86,93.23,231.86z"/>
		<path class="st1" d="M372.87,300.21c0,0,8.28-14.47,0.62-13.36C370.03,287.36,372.87,300.21,372.87,300.21z"/>
		<path class="st1" d="M104.24,300.21c0,0,8.28-14.47,0.62-13.36C101.4,287.36,104.24,300.21,104.24,300.21z"/>
		<path class="st1" d="M488.02,319.08c0,0,1.77-16.6-4.8-12.47C480.25,308.47,488.02,319.08,488.02,319.08z"/>
		<path class="st1" d="M419.88,301.29c0,0,14.26-18.59,6.44-19.2C422.78,281.8,419.88,301.29,419.88,301.29z"/>
		<path class="st3" d="M432.92,374.11c0,0,10.57-18.06,2.91-16.94C432.37,357.68,432.92,374.11,432.92,374.11z"/>
		<path class="st3" d="M476.74,473.97c0,0,9.93-24.89,1.38-19.01C475.24,456.94,476.74,473.97,476.74,473.97z"/>
		<path class="st3" d="M472.87,481.63c0,0,3.11-21.98-5.43-16.11C464.56,467.51,472.87,481.63,472.87,481.63z"/>
		<path class="st3" d="M305.24,429.02c0,0-3.91-16.47-0.78-17.88C307.58,409.72,305.24,429.02,305.24,429.02z"/>
		<path class="st3" d="M277.12,468.07c0,0,0.48-19.76,4.92-18.04C286.49,451.76,277.12,468.07,277.12,468.07z"/>
		<path class="st0" d="M116.89,143.68c0,0-16.36-27.77-10.4-29.14c5.96-1.37,8.94,17.12,8.94,17.12s-0.07-30.32,5.48-29.04
			C126.46,103.91,116.89,143.68,116.89,143.68z"/>
		<path class="st0" d="M97.07,160.31c0,0-4.25-21.43-10.74-19.71C79,142.53,97.07,160.31,97.07,160.31z"/>
		<path class="st0" d="M164.34,175.91c0,0-4.25-21.43-10.74-19.71C146.27,158.13,164.34,175.91,164.34,175.91z"/>
		<path class="st0" d="M164.11,174.82c0,0,5.89-34.06-0.6-32.34C156.18,144.42,164.11,174.82,164.11,174.82z"/>
		<path class="st0" d="M157.7,111.05c0,0-0.83-31.78-7.32-30.07C143.04,82.92,157.7,111.05,157.7,111.05z"/>
		<path class="st0" d="M164.11,113.81c0,0,13.4-23.96,6.91-22.24C163.69,93.5,164.11,113.81,164.11,113.81z"/>
		<path class="st0" d="M234.16,116.38c0,0,13.4-23.96,6.91-22.24C233.74,96.08,234.16,116.38,234.16,116.38z"/>
		<path class="st0" d="M199.69,182.89c0,0-2.89-24.46-9.38-22.75C182.99,162.08,199.69,182.89,199.69,182.89z"/>
		<path class="st0" d="M199.46,181.8c0,0,13.4-23.96,6.91-22.24C199.04,161.49,199.46,181.8,199.46,181.8z"/>
		<path class="st0" d="M139.19,157.05c0,0-4.07-23.58,2.4-20.88C147.04,138.43,139.19,157.05,139.19,157.05z"/>
		<path class="st0" d="M32.56,138.05c0,0-12.69-32.98-2.53-30.96C38.56,108.79,32.56,138.05,32.56,138.05z"/>
		<path class="st0" d="M212.47,136.82c0,0-8.27-28.37,1.41-24.69C217.9,113.67,212.47,136.82,212.47,136.82z"/>
		<path class="st0" d="M263.25,139.91c0,0-8.27-28.37,1.41-24.69C268.69,116.76,263.25,139.91,263.25,139.91z"/>
		<path class="st0" d="M250.67,177.8c0,0,5.8-24,12.38-20.74C266.92,158.96,250.67,177.8,250.67,177.8z"/>
		<path class="st0" d="M188.8,136.82c0,0-3.61-26.74,3.39-21.93C194.56,116.52,188.8,136.82,188.8,136.82z"/>
		<path class="st0" d="M293.05,118.34c0,0-3.61-26.74,3.39-21.93C298.81,98.04,293.05,118.34,293.05,118.34z"/>
		<path class="st0" d="M276.87,32.9c0,0-3.61-26.74,3.39-21.93C282.62,12.6,276.87,32.9,276.87,32.9z"/>
		<path class="st0" d="M440.2,41.4c0,0-3.61-26.74,3.39-21.93C445.96,21.1,440.2,41.4,440.2,41.4z"/>
		<path class="st0" d="M177.96,130.48c0,0-8.13-20.4-1.13-15.58C179.19,116.52,177.96,130.48,177.96,130.48z"/>
		<path class="st0" d="M109.9,83.23c0,0-8.14-20.4-1.13-15.58C111.13,69.27,109.9,83.23,109.9,83.23z"/>
		<path class="st0" d="M231.19,104c0,0-8.13-20.4-1.14-15.58C232.42,90.04,231.19,104,231.19,104z"/>
		<path class="st0" d="M187.55,42.09c0,0-8.14-20.4-1.14-15.59C188.78,28.13,187.55,42.09,187.55,42.09z"/>
		<path class="st0" d="M284.81,143.73c0,0-8.13-20.4-1.13-15.59C286.04,129.77,284.81,143.73,284.81,143.73z"/>
		<path class="st0" d="M463.6,94.73c0,0,13.4-23.96,6.91-22.24C463.18,74.43,463.6,94.73,463.6,94.73z"/>
		<path class="st0" d="M441.92,115.17c0,0-8.27-28.37,1.41-24.69C447.35,92.02,441.92,115.17,441.92,115.17z"/>
		<path class="st0" d="M492.7,118.26c0,0-8.27-28.37,1.41-24.69C498.13,95.11,492.7,118.26,492.7,118.26z"/>
		<path class="st0" d="M463.8,142.99c0,0-8.27-28.37,1.41-24.69C469.23,119.84,463.8,142.99,463.8,142.99z"/>
		<path class="st0" d="M325.05,74.91c0,0-3.61-26.74,3.39-21.93C330.8,54.61,325.05,74.91,325.05,74.91z"/>
		<path class="st0" d="M460.63,82.35c0,0-8.13-20.4-1.13-15.59C461.86,68.39,460.63,82.35,460.63,82.35z"/>
		<path class="st0" d="M489.09,69.49c0,0-8.13-20.4-1.13-15.59C490.32,55.53,489.09,69.49,489.09,69.49z"/>
		<path class="st0" d="M219.75,165.21c0,0-8.14-20.4-1.13-15.59C220.98,151.26,219.75,165.21,219.75,165.21z"/>
		<path class="st0" d="M245.38,185.71c0,0-10.22-15.06-3.21-10.24C244.53,177.1,245.38,185.71,245.38,185.71z"/>
		<path class="st0" d="M249.59,178.43c0.06,0.21-10.51-33.09-2.67-29.76C253.33,151.4,249.59,178.43,249.59,178.43z"/>
		<path class="st0" d="M120.6,180.63c0,0-8.14-20.4-1.13-15.58C121.83,166.67,120.6,180.63,120.6,180.63z"/>
		<path class="st0" d="M86.41,123.06c0,0-8.13-20.4-1.13-15.58C87.64,109.1,86.41,123.06,86.41,123.06z"/>
		<path class="st0" d="M129.64,87.76c0,0-8.13-20.4-1.13-15.58C130.88,73.8,129.64,87.76,129.64,87.76z"/>
		<path class="st0" d="M199.6,86.23c0,0-12.36-20.99-7.86-22.03c4.5-1.04,6.76,12.94,6.76,12.94s1.11-15.41,5.3-14.44
			C207.99,63.68,199.6,86.23,199.6,86.23z"/>
		<path class="st0" d="M240.75,51.49c0,0-0.83-31.78-7.32-30.07C226.1,23.36,240.75,51.49,240.75,51.49z"/>
		<path class="st0" d="M240.52,50.41c0,0,13.4-23.96,6.91-22.24C240.1,30.1,240.52,50.41,240.52,50.41z"/>
		<path class="st0" d="M310.57,52.98c0,0,13.4-23.96,6.91-22.24C310.15,32.67,310.57,52.98,310.57,52.98z"/>
		<path class="st0" d="M288.88,73.42c0,0-8.27-28.38,1.41-24.69C294.31,50.27,288.88,73.42,288.88,73.42z"/>
		<path class="st0" d="M339.66,76.51c0,0-8.27-28.37,1.4-24.69C345.09,53.36,339.66,76.51,339.66,76.51z"/>
		<path class="st0" d="M265.99,97.58c0,0-3.61-26.74,3.39-21.93C271.74,77.27,265.99,97.58,265.99,97.58z"/>
		<path class="st0" d="M254.37,67.08c0,0-8.14-20.4-1.13-15.58C255.6,53.12,254.37,67.08,254.37,67.08z"/>
		<path class="st0" d="M307.6,40.59c0,0-8.13-20.4-1.13-15.59C308.83,26.63,307.6,40.59,307.6,40.59z"/>
		<path class="st0" d="M206.05,24.36c0,0-8.13-20.4-1.13-15.58C207.28,10.4,206.05,24.36,206.05,24.36z"/>
		<path class="st0" d="M409.12,138.52c0,0,16.36-27.77,10.4-29.14c-5.96-1.37-8.94,17.12-8.94,17.12s0.07-30.32-5.47-29.04
			C399.56,98.75,409.12,138.52,409.12,138.52z"/>
		<path class="st0" d="M428.95,155.15c0,0,4.25-21.43,10.74-19.71C447.02,137.38,428.95,155.15,428.95,155.15z"/>
		<path class="st0" d="M361.68,170.75c0,0,4.25-21.43,10.74-19.71C379.75,152.98,361.68,170.75,361.68,170.75z"/>
		<path class="st0" d="M361.91,169.66c0,0-5.89-34.06,0.6-32.34C369.84,139.26,361.91,169.66,361.91,169.66z"/>
		<path class="st0" d="M361.68,109.74c0,0,0.83-31.78,7.32-30.07C376.33,81.61,361.68,109.74,361.68,109.74z"/>
		<path class="st0" d="M361.91,108.65c0,0-13.4-23.96-6.91-22.24C362.33,88.35,361.91,108.65,361.91,108.65z"/>
		<path class="st0" d="M326.32,177.73c0,0,2.89-24.46,9.38-22.75C343.03,156.92,326.32,177.73,326.32,177.73z"/>
		<path class="st0" d="M326.56,176.64c0,0-13.4-23.96-6.91-22.24C326.98,156.34,326.56,176.64,326.56,176.64z"/>
		<path class="st0" d="M388.28,145.3c0,0,4.51-26.1-2.66-23.12C379.6,124.68,388.28,145.3,388.28,145.3z"/>
		<path class="st0" d="M337.22,131.67c0,0,3.61-26.74-3.39-21.93C331.46,111.37,337.22,131.67,337.22,131.67z"/>
		<path class="st0" d="M348.06,125.32c0,0,8.14-20.4,1.13-15.58C346.83,111.37,348.06,125.32,348.06,125.32z"/>
		<path class="st0" d="M357.63,30.15c0,0,8.13-15.18,1.13-11.6C356.4,19.76,357.63,30.15,357.63,30.15z"/>
		<path class="st0" d="M405.42,175.47c0,0,8.13-20.4,1.13-15.59C404.19,161.51,405.42,175.47,405.42,175.47z"/>
		<path class="st0" d="M421.85,184.95c0,0,8.61-16.96,0.38-14.87C416.86,171.45,421.85,184.95,421.85,184.95z"/>
		<path class="st0" d="M414.45,95.98c0,0,8.67-14.8,2.38-13.89C414,82.51,414.45,95.98,414.45,95.98z"/>
		<path class="st0" d="M309.8,140.98c0,0-3.2-13.5-0.64-14.66C311.72,125.17,309.8,140.98,309.8,140.98z"/>
		<path class="st0" d="M380.97,63.66c0,0-8.27-28.37,1.41-24.69C386.41,40.51,380.97,63.66,380.97,63.66z"/>
		<path class="st0" d="M410.78,42.09c0,0-3.61-26.74,3.39-21.93C416.53,21.79,410.78,42.09,410.78,42.09z"/>
		<path class="st0" d="M402.53,67.47c0,0-8.13-20.4-1.13-15.59C403.76,53.51,402.53,67.47,402.53,67.47z"/>
		<path class="st0" d="M67.8,95.9c0,0,16.36-27.77,10.4-29.14c-5.96-1.37-8.94,17.12-8.94,17.12s-2.19-12.59-7.73-11.3
			C55.98,73.86,67.8,95.9,67.8,95.9z"/>
		<path class="st0" d="M155.71,65.37c0,0,16.36-27.77,10.4-29.14c-5.96-1.37-8.94,17.12-8.94,17.12s0.23-15.99-5.31-14.71
			C146.31,39.93,155.71,65.37,155.71,65.37z"/>
		<path class="st0" d="M15.9,95.5c0,0,0.83-31.78,7.32-30.07C30.56,67.37,15.9,95.5,15.9,95.5z"/>
		<path class="st0" d="M12.38,59.85c0,0-7.53-19.7-1.75-16.52C17.16,46.92,12.38,59.85,12.38,59.85z"/>
		<path class="st0" d="M81.14,54.86c0,0,0.65-16.31-5.63-15.39C72.67,39.88,81.14,54.86,81.14,54.86z"/>
		<path class="st0" d="M107.38,43.39c0,0,8.67-14.8,2.38-13.89C106.92,29.92,107.38,43.39,107.38,43.39z"/>
		<path class="st0" d="M44.34,69.88c0,0-8.27-28.37,1.41-24.69C49.77,46.72,44.34,69.88,44.34,69.88z"/>
		<path class="st0" d="M137.34,36.15c0,0-8.27-28.37,1.41-24.69C142.77,13,137.34,36.15,137.34,36.15z"/>
		<path class="st0" d="M61.2,24.84c0,0-8.13-20.4-1.13-15.59C62.43,10.88,61.2,24.84,61.2,24.84z"/>
		<path class="st0" d="M479.63,32.4c0,0-13.4-23.96-6.91-22.24C480.05,12.09,479.63,32.4,479.63,32.4z"/>
		<path class="st0" d="M454.94,55.41c0,0,3.61-26.74-3.39-21.93C449.18,35.11,454.94,55.41,454.94,55.41z"/>
		<path class="st0" d="M465.78,49.07c0,0,8.13-20.4,1.13-15.58C464.55,35.11,465.78,49.07,465.78,49.07z"/>
		<path class="st0" d="M427.52,64.73c0,0-3.2-13.5-0.64-14.66C429.44,48.91,427.52,64.73,427.52,64.73z"/>
		<path class="st0" d="M286.75,173c0,0,0.39-16.2,4.04-14.79C294.43,159.62,286.75,173,286.75,173z"/>
		<path class="st3" d="M318.87,370.77c0,0-12.53-15.43-8.26-17.52C314.88,351.16,318.87,370.77,318.87,370.77z"/>
		<path class="st3" d="M336.33,358.96c0,0,9.06-17.32,3.02-18.47C333.31,339.34,336.33,358.96,336.33,358.96z"/>
		<path class="st0" d="M50.85,192.24c0,0,4.33-10.2,6.28-9.89c1.95,0.31-2.86,10.94-2.86,10.94s4.81-6.52,5.75-5.48
			c0.94,1.04-1.87,7.4-1.87,7.4s-8.74,4.82-7.3-2.59"/>
		<path class="st0" d="M28.07,185.53c0,0,3.98-4.31,4.69-3.61c0.7,0.71-1.76,5.29-1.76,5.29L28.07,185.53z"/>
		<path class="st0" d="M5.73,178.82c0,0,5.62-28.23,0-30.43c-5.62-2.2-4.22,28.39-4.22,28.39L5.73,178.82z"/>
		<path class="st0" d="M86.04,203.03c0,0,3.33-8.68,5.16-8.11c1.82,0.58-1.46,10.14-1.46,10.14L86.04,203.03z"/>
		<path class="st0" d="M112.65,210.46c0-0.1,2.24-12.6,4.38-12.45c2.14,0.16,2.34,13.39,2.34,13.39l-7.08-0.94"/>
		<path class="st0" d="M159.05,215.42c0,0,3.49-7.48,4.17-7.58c0.68-0.11,0,7.97,0,7.97s1.74-4.78,2.45-4.84
			c0.7-0.05,2.27,4.92,2.32,5.05C168.04,216.16,158.91,215.72,159.05,215.42z"/>
		<path class="st0" d="M188.29,219.98c0,0,3.09-9.9,4.69-9.75c1.6,0.16,0.7,9.75,0.7,9.75s1.52-5.16,2.19-5.16
			c0.66,0,2.3,5.3,2.38,5.41c0.08,0.12-9.53,9.18-9.8-0.25"/>
		<path class="st0" d="M280.24,220.34c0,0-1.24-25.36,0.59-23.01c0.43,0.55,5.09,23.8,5.09,23.8s1.3-19.76,3.44-20.55
			c2.14-0.79,2.78,21.44,2.78,21.44S280.35,223.11,280.24,220.34z"/>
		<path class="st0" d="M321.76,219.13c0.78-2.46,2.83-24.94,0-25.78c-2.83-0.84-8.82,24.99-8.82,24.99L321.76,219.13z"/>
		<path class="st0" d="M348.73,213.54c0,0-1.09-8.57,0-9.46c1.09-0.89,3.7,9.46,3.7,9.46s-1.19-14.8,2.03-17.99
			c3.23-3.19,2.55,17.99,2.55,17.99s1.82-20.96,3.33-20.2c1.51,0.75,1.82,23.6,1.82,23.6S348.31,216.1,348.73,213.54z"/>
		<path class="st0" d="M257.16,220.7c0,0,0.58-7.39,0-7.37c-3.26,0.07-3.56,8.23-3.56,8.23l3.2-0.63"/>
	</g>
</g>
<g id="Objects">
</g>
<g id="Designed_by_Freepik">
</g>
</svg>
