<svg height="1139pt" viewBox="0 0 1139 1139.3876" width="1139pt" xmlns="http://www.w3.org/2000/svg" xmlns:xlink="http://www.w3.org/1999/xlink"><linearGradient id="a" gradientUnits="userSpaceOnUse" x1="323.8571852912" x2="815.4878820368" y1="1141.5261357804" y2="649.8954390348"><stop offset="0" stop-color="#ff99b5"/><stop offset="1" stop-color="#ffdc68"/></linearGradient><path d="m569.667969 759.300781c-228.550781 0-474.5625 59.417969-474.5625 189.828125s246.015625 189.824219 474.5625 189.824219c228.550781 0 474.566406-59.414063 474.566406-189.824219s-246.011719-189.828125-474.566406-189.828125zm0 0" fill="#ffe58e"/><path d="m854.410156 1091.5v-284.738281c0-157.257813-127.480468-284.738281-284.738281-284.738281s-284.738281 127.480468-284.738281 284.738281v284.738281c.214844 4.75 1.15625 9.4375 2.800781 13.902344 92.171875 23.132812 186.914063 34.410156 281.9375 33.550781 95.027344.859375 189.769531-10.417969 281.941406-33.550781 1.640625-4.460938 2.582031-9.152344 2.796875-13.902344zm0 0" fill="url(#a)"/><g fill="#fff"><path d="m522.214844 806.761719c0 26.207031-21.246094 47.453125-47.457032 47.453125-26.207031 0-47.457031-21.246094-47.457031-47.453125 0-26.210938 21.25-47.457031 47.457031-47.457031 26.210938 0 47.457032 21.246093 47.457032 47.457031zm0 0"/><path d="m712.039062 806.761719c0 26.207031-21.246093 47.453125-47.453124 47.453125-26.210938 0-47.457032-21.246094-47.457032-47.453125 0-26.210938 21.246094-47.457031 47.457032-47.457031 26.207031 0 47.453124 21.246093 47.453124 47.457031zm0 0"/><path d="m522.214844 901.671875h94.910156v94.914063h-94.910156zm0 0"/></g><path d="m237.476562 237.28125c-135.300781 0-237.28125 61.21875-237.28125 142.371094s101.980469 142.371094 237.28125 142.371094c135.296876 0 237.28125-61.21875 237.28125-142.371094s-101.984374-142.371094-237.28125-142.371094zm0 0" fill="#ffdc68"/><path d="m901.867188 0c-135.300782 0-237.28125 61.21875-237.28125 142.371094s101.980468 142.371094 237.28125 142.371094c135.296874 0 237.28125-61.21875 237.28125-142.371094s-101.984376-142.371094-237.28125-142.371094zm0 0" fill="#ffdc68"/></svg>