<svg id="Capa_1" enable-background="new 0 0 512 512" height="100" viewBox="0 0 512 512" width="100" xmlns="http://www.w3.org/2000/svg"><g><path d="m311.356 20h-110.712c-110.635 0-200.644 90.055-200.644 200.747v51.298c0 62.359 30.674 120.644 82.053 155.909 19.954 13.696 43.534 20.936 68.194 20.936h27.402v28.11c0 8.284 6.712 15 14.992 15h126.718c8.28 0 14.992-6.716 14.992-15v-28.11h27.402c24.659 0 48.24-7.239 68.194-20.936 51.379-35.266 82.053-93.55 82.053-155.909v-51.298c0-110.692-90.009-200.747-200.644-200.747zm170.659 252.045c0 52.466-25.806 101.502-69.031 131.171-14.938 10.254-32.654 15.674-51.231 15.674h-27.402v-25.945c13.075-3.737 25.085-10.792 34.942-20.739 14.74-14.873 23.021-34.497 23.32-55.258.288-20.007-6.828-39.275-20.039-54.257-5.478-6.212-14.952-6.805-21.161-1.324s-6.802 14.96-1.324 21.172c8.268 9.376 12.723 21.442 12.541 33.977-.384 26.687-22.388 48.891-49.051 49.495-14.478.343-28.425-5.621-38.214-16.323-4.952-5.415-12.011-8.521-19.367-8.521s-14.415 3.105-19.367 8.521c-9.789 10.701-23.726 16.644-38.214 16.323-26.663-.604-48.667-22.809-49.051-49.496-.168-11.677 3.546-22.679 10.74-31.814 5.124-6.507 4.006-15.938-2.498-21.065-6.505-5.127-15.931-4.009-21.055 2.499-11.336 14.396-17.434 32.442-17.169 50.813.299 20.762 8.581 40.386 23.32 55.259 9.856 9.946 21.866 17.002 34.942 20.739v25.945h-27.402c-18.577 0-36.292-5.42-51.231-15.674-43.225-29.669-69.031-78.705-69.031-131.171v-51.298c.003-94.151 76.56-170.748 170.662-170.748h110.712c94.102 0 170.659 76.597 170.659 170.747zm-274.382 123.548c11.867-1.2 23.256-5.02 33.375-11.131v77.538h-33.375zm63.359-11.123c10.12 6.109 21.51 9.942 33.375 11.142v66.388h-33.375z"/><path d="m187.035 214c8.28 0 14.992-6.716 14.992-15v-30c0-8.284-6.712-15-14.992-15s-14.992 6.716-14.992 15v30c0 8.284 6.712 15 14.992 15z"/><path d="m324.965 214c8.28 0 14.992-6.716 14.992-15v-30c0-8.284-6.712-15-14.992-15s-14.992 6.716-14.992 15v30c-.001 8.284 6.712 15 14.992 15z"/><ellipse cx="226.41" cy="270.055" rx="14.992" ry="15"/><ellipse cx="285.59" cy="270.055" rx="14.992" ry="15"/></g></svg>